<svg xmlns="http://www.w3.org/2000/svg" xmlns:xlink="http://www.w3.org/1999/xlink" viewBox="0 0 1318.11 387"><defs><style>.cls-1{fill:#030744;}.cls-2{fill:url(#linear-gradient);}.cls-3{fill:url(#linear-gradient-2);}.cls-4{fill:url(#linear-gradient-3);}.cls-5{fill:url(#linear-gradient-4);}</style><linearGradient id="linear-gradient" x1="93.15" y1="107.93" x2="291.62" y2="107.93" gradientUnits="userSpaceOnUse"><stop offset="0" stop-color="#3827b4"/><stop offset="1" stop-color="#6c18a4"/></linearGradient><linearGradient id="linear-gradient-2" x1="93.43" y1="200.53" x2="251.44" y2="200.53" xlink:href="#linear-gradient"/><linearGradient id="linear-gradient-3" x1="93.01" y1="290.2" x2="163.22" y2="290.2" xlink:href="#linear-gradient"/><linearGradient id="linear-gradient-4" x1="0" y1="193.5" x2="387" y2="193.5" xlink:href="#linear-gradient"/></defs><g id="Layer_2" data-name="Layer 2"><g id="Layer_1-2" data-name="Layer 1"><path class="cls-1" d="M539.75,265.2H495.89v45.31H473V199.63h72.19v18.51H495.89v28.63h43.86Z"/><path class="cls-1" d="M606.09,310.51a24.38,24.38,0,0,1-2.2-7.39q-8,8.91-20.8,8.91Q571,312,563,305a22.53,22.53,0,0,1-8-17.67q0-13.1,9.71-20.11t28.06-7.08H603v-4.72q0-5.72-2.93-9.14t-9.25-3.42q-5.56,0-8.72,2.66a9.06,9.06,0,0,0-3.16,7.31h-22a22.13,22.13,0,0,1,4.41-13.25,29.23,29.23,0,0,1,12.5-9.56,45.67,45.67,0,0,1,18.12-3.46q15.23,0,24.18,7.65t8.95,21.51v35.72q.08,11.73,3.27,17.74v1.3Zm-18.2-15.31a18.93,18.93,0,0,0,9-2.17,14.3,14.3,0,0,0,6.09-5.82V273h-8.22q-16.53,0-17.6,11.43l-.07,1.29a8.82,8.82,0,0,0,2.89,6.78C581.9,294.32,584.54,295.2,587.89,295.2Z"/><path class="cls-1" d="M680.13,294.29a14.46,14.46,0,0,0,9.9-3.35,11.75,11.75,0,0,0,4-8.91h20.64a28.34,28.34,0,0,1-4.57,15.34,30.23,30.23,0,0,1-12.3,10.82A38.58,38.58,0,0,1,680.51,312q-17.67,0-27.87-11.23t-10.21-31v-1.45q0-19,10.13-30.39t27.8-11.34q15.45,0,24.79,8.79t9.48,23.42H694a15.1,15.1,0,0,0-4-10.45,13.2,13.2,0,0,0-10-4q-7.69,0-11.62,5.61t-3.92,18.19v2.29q0,12.74,3.89,18.3T680.13,294.29Z"/><path class="cls-1" d="M757.44,207.85v20.26h14.09v16.14H757.44v41.13c0,3,.58,5.23,1.75,6.55s3.4,2,6.7,2a34.72,34.72,0,0,0,6.48-.54v16.68A45.35,45.35,0,0,1,759,312q-23.14,0-23.61-23.38v-44.4h-12V228.11h12V207.85Z"/><path class="cls-1" d="M837,302.13q-8.16,9.9-22.54,9.9-13.26,0-20.23-7.61t-7.11-22.32v-54h22V281.4q0,12.9,11.73,12.89,11.19,0,15.38-7.78v-58.4h22.09v82.4H837.64Z"/><path class="cls-1" d="M925.16,248.75a59.27,59.27,0,0,0-7.92-.61q-12.5,0-16.37,8.45v53.92h-22v-82.4h20.79l.61,9.82q6.62-11.34,18.35-11.34a23,23,0,0,1,6.85,1Z"/><path class="cls-1" d="M985.11,310.51a24.37,24.37,0,0,1-2.21-7.39q-8,8.91-20.79,8.91Q950,312,942,305a22.56,22.56,0,0,1-7.95-17.67q0-13.1,9.71-20.11t28.06-7.08H982v-4.72q0-5.72-2.93-9.14t-9.25-3.42q-5.55,0-8.72,2.66a9.06,9.06,0,0,0-3.16,7.31h-22a22.08,22.08,0,0,1,4.42-13.25,29.2,29.2,0,0,1,12.49-9.56,45.67,45.67,0,0,1,18.12-3.46q15.24,0,24.18,7.65t9,21.51v35.72q.07,11.73,3.27,17.74v1.3Zm-18.2-15.31a18.92,18.92,0,0,0,9-2.17,14.25,14.25,0,0,0,6.09-5.82V273h-8.22q-16.53,0-17.59,11.43l-.08,1.29a8.83,8.83,0,0,0,2.9,6.78C960.92,294.32,963.55,295.2,966.91,295.2Z"/><path class="cls-1" d="M1059.14,294.29a14.46,14.46,0,0,0,9.9-3.35,11.75,11.75,0,0,0,4-8.91h20.64a28.17,28.17,0,0,1-4.57,15.34,30.1,30.1,0,0,1-12.3,10.82,38.52,38.52,0,0,1-17.25,3.84q-17.67,0-27.87-11.23t-10.2-31v-1.45q0-19,10.13-30.39t27.79-11.34q15.47,0,24.79,8.79t9.48,23.42H1073a15.1,15.1,0,0,0-4-10.45,13.2,13.2,0,0,0-10-4q-7.7,0-11.61,5.61t-3.92,18.19v2.29q0,12.74,3.88,18.3T1059.14,294.29Z"/><path class="cls-1" d="M1133.33,310.51h-22.09v-82.4h22.09Z"/><path class="cls-1" d="M1151.93,268.55a48.87,48.87,0,0,1,4.72-21.86,34.56,34.56,0,0,1,13.59-14.85,39.67,39.67,0,0,1,20.6-5.25q16.68,0,27.22,10.2t11.77,27.72l.15,5.64q0,19-10.58,30.42T1191,312q-17.82,0-28.44-11.42t-10.62-31.07Zm22,1.56q0,11.75,4.42,18t12.64,6.22a14.61,14.61,0,0,0,12.49-6.14q4.5-6.13,4.49-19.64,0-11.52-4.49-17.85a14.6,14.6,0,0,0-12.64-6.33,14.36,14.36,0,0,0-12.49,6.3Q1173.93,256.91,1173.93,270.11Zm21.25-76.57h24l-21.1,23.61h-17.89Z"/><path class="cls-1" d="M1267.69,228.11l.69,9.52q8.83-11,23.68-11,13.1,0,19.5,7.69t6.55,23v53.23h-22v-52.7q0-7-3-10.17t-10.12-3.15a15.13,15.13,0,0,0-13.94,7.92v58.1h-22v-82.4Z"/><path class="cls-1" d="M528.33,135.14H492l-8.17,22.71H472l33.14-86.77h10l33.2,86.77H536.62Zm-32.89-9.35h29.5L510.16,85.2Z"/><path class="cls-1" d="M615.84,126.32q0,14.73-6.74,23.72a21.58,21.58,0,0,1-18.23,9q-11.75,0-18.48-7.45v31h-11V93.37h10.07l.53,7.15q6.74-8.35,18.72-8.35,11.63,0,18.38,8.77t6.77,24.37Zm-11-1.25q0-10.9-4.65-17.22a15,15,0,0,0-12.75-6.32q-10,0-15,8.88v30.81q5,8.82,15.14,8.82a14.9,14.9,0,0,0,12.6-6.28Q604.81,137.46,604.81,125.07Z"/><path class="cls-1" d="M644.87,157.85h-11V66.31h11Z"/><path class="cls-1" d="M724.1,150a15.9,15.9,0,0,0,10.31-3.57,12.62,12.62,0,0,0,4.89-8.94h10.43a20,20,0,0,1-3.82,10.55,25,25,0,0,1-9.39,8,27,27,0,0,1-12.42,3q-13.17,0-21-8.79t-7.78-24v-1.84a38.9,38.9,0,0,1,3.46-16.75,26.41,26.41,0,0,1,9.92-11.39,28.21,28.21,0,0,1,15.29-4q10.85,0,18,6.5a23.21,23.21,0,0,1,7.66,16.87H739.3a15.21,15.21,0,0,0-4.74-10.28,14.71,14.71,0,0,0-10.52-4q-8.4,0-13,6t-4.62,17.49v2.09Q706.4,138,711,144T724.1,150Z"/><path class="cls-1" d="M805,157.85a22.8,22.8,0,0,1-1.55-6.79,24.63,24.63,0,0,1-18.36,8q-9.54,0-15.65-5.39a17.47,17.47,0,0,1-6.1-13.68q0-10.07,7.66-15.64t21.54-5.58h10.73v-5.06a12.41,12.41,0,0,0-3.46-9.21q-3.45-3.42-10.19-3.43a16.16,16.16,0,0,0-9.9,3c-2.65,2-4,4.39-4,7.21H764.64a15.19,15.19,0,0,1,3.43-9.32,23.39,23.39,0,0,1,9.29-7.13,31.41,31.41,0,0,1,12.9-2.62q11.15,0,17.47,5.58t6.55,15.34v29.68q0,8.88,2.27,14.13v.95Zm-18.3-8.4a19.37,19.37,0,0,0,9.83-2.69,16.18,16.18,0,0,0,6.74-7V126.56h-8.65q-20.25,0-20.26,11.86a10,10,0,0,0,3.46,8.11A13.31,13.31,0,0,0,786.69,149.45Z"/><path class="cls-1" d="M860.48,150a15.88,15.88,0,0,0,10.31-3.57,12.62,12.62,0,0,0,4.89-8.94h10.43a20.06,20.06,0,0,1-3.81,10.55,25.2,25.2,0,0,1-9.39,8,27,27,0,0,1-12.43,3q-13.17,0-21-8.79t-7.77-24v-1.84a38.9,38.9,0,0,1,3.45-16.75,26.37,26.37,0,0,1,9.93-11.39,28.18,28.18,0,0,1,15.28-4q10.85,0,18,6.5a23.21,23.21,0,0,1,7.66,16.87H875.68a15.21,15.21,0,0,0-4.74-10.28,14.71,14.71,0,0,0-10.52-4q-8.4,0-13,6t-4.62,17.49v2.09q0,11.14,4.59,17.16T860.48,150Z"/><path class="cls-1" d="M913.54,157.85h-11V93.37h11Z"/><path class="cls-1" d="M931.31,125A38,38,0,0,1,935,108a27.66,27.66,0,0,1,10.37-11.68,28.2,28.2,0,0,1,15.16-4.12q13.17,0,21.31,9.12T990,125.55v.77a38.5,38.5,0,0,1-3.61,16.9,27.44,27.44,0,0,1-10.31,11.65A28.58,28.58,0,0,1,960.69,159q-13.11,0-21.25-9.12t-8.13-24.13Zm11.09,1.31q0,10.73,5,17.22a16.87,16.87,0,0,0,26.67-.08q5-6.59,5-18.45,0-10.61-5-17.19a16.74,16.74,0,0,0-26.55-.09Q942.39,114.23,942.4,126.32Zm23.18-60h13.35L963,83.83l-8.88,0Z"/><path class="cls-1" d="M1017.32,93.37l.36,8.1a23.51,23.51,0,0,1,19.31-9.3q20.44,0,20.62,23.07v42.61h-11V115.18q-.06-7-3.19-10.31t-9.75-3.34a15.88,15.88,0,0,0-9.41,2.86,19.47,19.47,0,0,0-6.32,7.51v45.95h-11V93.37Z"/><path class="cls-1" d="M1107.88,125.07q0-14.83,7-23.87a22.23,22.23,0,0,1,18.41-9q11.33,0,17.94,7.75V66.31h11v91.54h-10.13l-.54-6.91q-6.61,8.1-18.41,8.1-11.22,0-18.27-9.17t-7.06-24Zm11,1.25q0,11,4.53,17.17a14.65,14.65,0,0,0,12.52,6.2q10.48,0,15.31-9.42V110.65q-4.93-9.12-15.2-9.12a14.69,14.69,0,0,0-12.63,6.26Q1118.9,114,1118.9,126.32Z"/><path class="cls-1" d="M1209.2,159q-13.11,0-21.33-8.61t-8.23-23v-2a38.77,38.77,0,0,1,3.67-17.14,28.51,28.51,0,0,1,10.25-11.79,25.71,25.71,0,0,1,14.27-4.27q12.57,0,19.55,8.29t7,23.72v4.59h-43.68q.24,9.53,5.57,15.4A17.51,17.51,0,0,0,1209.8,150a19.19,19.19,0,0,0,9.89-2.38,24.84,24.84,0,0,0,7.09-6.32l6.74,5.24Q1225.4,159,1209.2,159Zm-1.37-57.81a14.69,14.69,0,0,0-11.2,4.86q-4.53,4.86-5.6,13.62h32.3v-.84q-.48-8.4-4.53-13A13.86,13.86,0,0,0,1207.83,101.23Z"/><rect class="cls-1" x="902.14" y="70.99" width="11.82" height="9.77"/><path class="cls-1" d="M677.92,156.9h-11V92.42h11Z"/><rect class="cls-1" x="666.53" y="70.05" width="11.82" height="9.77"/><rect class="cls-2" x="93.15" y="78.92" width="198.47" height="58.02"/><rect class="cls-3" x="93.43" y="171.52" width="158.01" height="58.02"/><rect class="cls-4" x="93.01" y="261.19" width="70.2" height="58.02"/><path class="cls-5" d="M387,387H0V0H387ZM27.82,359.18H359.18V27.82H27.82Z"/><rect class="cls-1" x="1110.76" y="190.87" width="22.47" height="18.57"/></g></g></svg>