<?xml version="1.0" encoding="utf-8"?>
<!-- Generator: Adobe Illustrator 18.1.1, SVG Export Plug-In . SVG Version: 6.00 Build 0)  -->
<svg version="1.1" id="Layer_1" xmlns="http://www.w3.org/2000/svg" xmlns:xlink="http://www.w3.org/1999/xlink" x="0px" y="0px"
	 viewBox="0 0 30 30" enable-background="new 0 0 30 30" xml:space="preserve">
<g id="Grupo_22" transform="translate(129.786 200.546)">
	<path id="Trazado_36" fill="#fff" d="M-129-171.5h28.3c0.1,0,0.1,0,0.2,0v0.9H-129L-129-171.5z"/>
	<path id="Trazado_37" fill="#fff" d="M-107.7-185.7v-12.6c0-0.6,0.1-0.7,0.7-0.7h4.3c0.6,0,0.7,0.1,0.7,0.7c0,2,0,4,0,5.9
		c0,6.4,0,12.8,0,19.1c0,0.1,0,0.2,0,0.4c0,0.3-0.2,0.5-0.5,0.5c0,0,0,0,0,0c-1.6,0-3.1,0-4.7,0c-0.4,0-0.5-0.2-0.5-0.6
		c0-2.5,0-5.1,0-7.6L-107.7-185.7z M-102.9-173.4v-24.7h-3.7v24.7H-102.9z"/>
	<path id="Trazado_38" fill="#fff" d="M-121-182.9v-9.7c0-0.6,0.1-0.7,0.7-0.7h4.3c0.5,0,0.7,0.2,0.7,0.7c0,6.5,0,13,0,19.5
		c0,0.6-0.2,0.7-0.7,0.7h-4.3c-0.5,0-0.7-0.2-0.7-0.7L-121-182.9z M-116.2-173.4v-19h-3.8v19H-116.2z"/>
	<path id="Trazado_39" fill="#fff" d="M-108.6-180v6.9c0,0.5-0.2,0.7-0.7,0.7h-4.4c-0.5,0-0.7-0.2-0.7-0.7c0-4.6,0-9.3,0-13.9
		c0-0.5,0.2-0.7,0.6-0.7c1.5,0,2.9,0,4.4,0c0.5,0,0.6,0.2,0.6,0.7C-108.6-184.7-108.6-182.4-108.6-180z M-109.6-173.4v-13.3h-3.8
		v13.3L-109.6-173.4z"/>
	<path id="Trazado_40" fill="#fff" d="M-121.9-177.2c0,1.4,0,2.8,0,4.1c0,0.5-0.2,0.6-0.6,0.6c-1.5,0-3,0-4.5,0
		c-0.4,0-0.6-0.2-0.6-0.6c0-2.8,0-5.5,0-8.3c0-0.5,0.2-0.6,0.6-0.6c1.5,0,2.9,0,4.4,0c0.5,0,0.6,0.2,0.6,0.6
		C-121.9-179.9-121.9-178.6-121.9-177.2z M-122.9-181h-3.8v7.6h3.8V-181z"/>
</g>
</svg>
