<?xml version="1.0" encoding="utf-8"?>
<!-- Generator: Adobe Illustrator 18.1.1, SVG Export Plug-In . SVG Version: 6.00 Build 0)  -->
<svg version="1.1" id="Layer_1" xmlns="http://www.w3.org/2000/svg" xmlns:xlink="http://www.w3.org/1999/xlink" x="0px" y="0px"
	 viewBox="0 0 30 30" enable-background="new 0 0 30 30" xml:space="preserve">
<path id="Trazado_151" fill="#fff" d="M29.3,7.1c-0.1,0.7-0.3,1.3-0.4,2c-0.6,3.5-1.2,7-1.9,10.5c-0.1,0.4-0.2,0.5-0.6,0.5
	c-5.1,0-10.1,0-15.2,0c-1,0-1.9,0.7-2.1,1.7c0,0.2,0,0.4,0,0.5h16.5c0.7-0.1,1.3,0.4,1.4,1c0.2,0.7-0.2,1.5-1,1.6
	c-0.1,0-0.2,0-0.3,0c-0.1,0-0.3,0-0.5,0c0.4,0.5,0.5,1.2,0.4,1.8c-0.1,0.6-0.5,1.2-1,1.5c-0.8,0.5-1.9,0.4-2.7-0.3
	c-0.8-0.8-0.9-1.8-0.3-3h-6.6c0.6,1.4,0.4,2.5-0.5,3.2c-0.8,0.6-2,0.6-2.8-0.1c-0.9-0.8-1-2.1-0.4-3.1c-1.5,0.1-2.8-0.9-3-2.4
	C8,21.3,8.7,20,9.9,19.4c-0.2-1.2-0.5-2.3-0.7-3.5C8.6,12.2,7.8,8.4,7.1,4.7C7,4.3,6.9,4.2,6.5,4.2H6c0,0.2,0,0.3,0,0.4
	c0,0.2-0.2,0.5-0.4,0.5c0,0,0,0-0.1,0c-1.2,0-2.4,0-3.6,0c-0.7,0-1.3-0.6-1.3-1.4c0-0.7,0.6-1.3,1.3-1.3c1.2,0,2.4,0,3.6,0
	C5.8,2.4,6,2.6,6,2.8c0,0,0,0,0,0.1C6,3,6,3.1,6,3.3c0.2,0,0.4,0,0.5,0c0.7,0,1.3,0.5,1.4,1.1C8.1,5,8.2,5.6,8.3,6.2
	c0,0.2,0.1,0.3,0.3,0.3c3.8,0,7.7,0,11.5,0c2.8,0,5.7,0,8.5,0c0.3,0,0.5,0.1,0.7,0.3L29.3,7.1z M15,7.4H8.5l0.6,3.1H15V7.4z
	 M15.9,11.5v3.6h5.3v-3.6H15.9z M15,15.1v-3.6H9.3l0.7,3.6H15z M28.4,7.4h-6.2v3.2h4.9c0.7,0,0.7,0,0.8-0.7
	C28.1,9,28.2,8.2,28.4,7.4L28.4,7.4z M22.2,15.1H27l0.6-3.6h-5.4L22.2,15.1z M21.3,7.4h-5.3v3.1h5.3V7.4z M21.3,16h-5.3v3.1h5.3V16z
	 M9.5,23.2c0.4,0.6,1.1,0.9,1.8,0.9c4.8,0,9.5,0,14.3,0c0.1,0,0.1,0,0.2,0c0.2,0,0.4-0.2,0.4-0.4c0-0.2-0.2-0.4-0.4-0.5
	c-0.1,0-0.1,0-0.2,0L9.5,23.2L9.5,23.2z M10.2,16l0.6,3.1H15V16H10.2z M26.8,16h-4.6v3.1h4.1L26.8,16z M14.6,26.4
	c0-0.7-0.6-1.3-1.3-1.4c-0.7,0-1.3,0.6-1.4,1.4c0,0,0,0,0,0c0,0.7,0.6,1.3,1.3,1.4C13.9,27.8,14.5,27.1,14.6,26.4L14.6,26.4z
	 M23.5,25c-0.7,0-1.3,0.6-1.3,1.4c0,0.8,0.6,1.4,1.3,1.4c0,0,0,0,0,0c0.7,0,1.3-0.6,1.3-1.4C24.9,25.7,24.3,25,23.5,25
	C23.5,25,23.5,25,23.5,25L23.5,25z M5.1,3.3c-1,0-2,0-3,0c-0.4,0-0.6,0.2-0.6,0.5s0.2,0.4,0.6,0.4c0.9,0,1.9,0,2.8,0
	c0.1,0,0.1,0,0.2,0L5.1,3.3z"/>
</svg>
