<?xml version="1.0" encoding="iso-8859-1"?>
<!-- Generator: Adobe Illustrator 17.1.0, SVG Export Plug-In . SVG Version: 6.00 Build 0)  -->
<!DOCTYPE svg PUBLIC "-//W3C//DTD SVG 1.1//EN" "http://www.w3.org/Graphics/SVG/1.1/DTD/svg11.dtd">
<svg version="1.1" id="Capa_1" xmlns="http://www.w3.org/2000/svg" xmlns:xlink="http://www.w3.org/1999/xlink" x="0px" y="0px"
	 viewBox="0 0 202.246 202.246" style="enable-background:new 0 0 202.246 202.246;" fill="#fff" xml:space="preserve">
<path d="M187.473,193.457h-172.7C6.627,193.457,0,186.83,0,178.684v-27.958c0-8.146,6.627-14.773,14.773-14.773h0.026L33.018,56.92
	c1.825-7.037,8.106-11.896,15.294-11.896h80.095V30.818h-27.275c-1.657,0-3-1.343-3-3V11.789c0-1.657,1.343-3,3-3h60.55
	c1.657,0,3,1.343,3,3v16.029c0,1.657-1.343,3-3,3h-27.275v14.206h19.527c7.188,0,13.47,4.859,15.275,11.817
	c0.007,0.026,0.013,0.053,0.02,0.08l18.219,79.033h0.026c8.146,0,14.773,6.627,14.773,14.773v27.958
	C202.246,186.83,195.619,193.457,187.473,193.457z M14.773,141.953c-4.837,0-8.773,3.936-8.773,8.773v27.958
	c0,4.837,3.936,8.773,8.773,8.773h172.7c4.837,0,8.773-3.936,8.773-8.773v-27.958c0-4.837-3.936-8.773-8.773-8.773H14.773z
	 M20.956,135.953H181.29L163.391,58.31c-1.132-4.292-5.015-7.286-9.458-7.286H48.312c-4.455,0-8.348,3.012-9.467,7.324
	L20.956,135.953z M104.132,24.818h54.55V14.789h-54.55V24.818z M106.444,172.855h-9.9c-4.494,0-8.15-3.656-8.15-8.15
	c0-4.495,3.656-8.151,8.15-8.151h9.9c4.495,0,8.151,3.656,8.151,8.151C114.595,169.199,110.938,172.855,106.444,172.855z
	 M96.544,162.554c-1.186,0-2.15,0.965-2.15,2.151c0,1.186,0.965,2.15,2.15,2.15h9.9c1.186,0,2.151-0.965,2.151-2.15
	c0-1.186-0.965-2.151-2.151-2.151H96.544z M150.383,92.235H51.862c-1.657,0-3-1.343-3-3V68.151c0-1.657,1.343-3,3-3h98.521
	c1.657,0,3,1.343,3,3v21.084C153.383,90.892,152.04,92.235,150.383,92.235z M54.862,86.235h92.521V71.151H54.862V86.235z"/>
<g>
</g>
<g>
</g>
<g>
</g>
<g>
</g>
<g>
</g>
<g>
</g>
<g>
</g>
<g>
</g>
<g>
</g>
<g>
</g>
<g>
</g>
<g>
</g>
<g>
</g>
<g>
</g>
<g>
</g>
</svg>
