<?xml version="1.0" encoding="utf-8"?>
<!-- Generator: Adobe Illustrator 18.1.1, SVG Export Plug-In . SVG Version: 6.00 Build 0)  -->
<svg version="1.1" id="Layer_1" xmlns="http://www.w3.org/2000/svg" xmlns:xlink="http://www.w3.org/1999/xlink" x="0px" y="0px"
	 viewBox="0 0 30 30" enable-background="new 0 0 30 30" xml:space="preserve">
<g id="Grupo_63" transform="translate(-988.636 1013.783)">
	<g id="Grupo_62" transform="translate(1299.327 -515.388)">
		<path id="Trazado_172" fill="#fff" d="M-288.2-498c0.5,0.1,0.9,0.5,1,1c0,0.2,0.1,0.3,0,0.5c0,0.8,0,1.5,0,2.3h0.3
			c0.7,0,1.4,0,2.1,0c0.8,0,1.4,0.6,1.5,1.3c0,0,0,0.1,0,0.1c0,5.6,0,11.2,0,16.7c0,0.9-0.4,1.7-1,2.3c-1.3,1.3-2.6,2.5-4,3.7
			c-0.7,0.6-1.6,1-2.5,0.9c-4,0-7.9,0-11.9,0c-0.8,0.1-1.4-0.5-1.5-1.3c0-0.1,0-0.1,0-0.2c0-0.8,0-1.5,0-2.3c0,0,0-0.1,0-0.1h-0.3
			c-0.7,0-1.4,0-2.1,0c-0.8,0-1.4-0.5-1.5-1.3c0-0.1,0-0.1,0-0.2c0-7.4,0-14.8,0-22.3c0-0.6,0.4-1.2,1-1.4c0,0,0.1,0,0.1-0.1
			L-288.2-498z M-290.3-470v-0.4c0-1,0-2,0-3.1c-0.1-1.1,0.7-2.1,1.9-2.2c0.1,0,0.2,0,0.3,0c1.1,0,2.2,0,3.3,0
			c0.5,0,0.5,0.1,0.5-0.5c0-5.5,0-11,0-16.4c0-0.5-0.1-0.5-0.5-0.5h-17.6c-0.5,0-0.5,0.1-0.5,0.6v22c0,0.5,0.1,0.6,0.6,0.6
			L-290.3-470L-290.3-470z M-288.2-494.1c0-0.1,0-0.2,0-0.3c0-0.7,0-1.4,0-2.1c0-0.4-0.1-0.5-0.5-0.5h-17.8c-0.4,0-0.5,0.1-0.5,0.5
			c0,7.4,0,14.8,0,22.1c0,0.4,0.1,0.5,0.5,0.5c0.7,0,1.4,0,2.1,0c0.1,0,0.2,0,0.2,0v-0.4c0-6.1,0-12.2,0-18.3c0-0.2,0-0.4,0-0.5
			c0.2-0.7,0.8-1.1,1.5-1.1L-288.2-494.1L-288.2-494.1z M-284.8-474.5c-0.1,0-0.2,0-0.3,0c-1.1,0-2.1,0-3.2,0c-0.5,0-0.9,0.3-1,0.8
			c0,0.1,0,0.1,0,0.2c0,1,0,1.9,0,2.9c0,0.1,0,0.1,0,0.3L-284.8-474.5z"/>
	</g>
	<path id="Trazado_173" fill="#fff" d="M1009.2-998.7h-3.2v-2.8c0-0.3-0.2-0.5-0.6-0.5c-0.3,0-0.6,0.2-0.6,0.5v2.8h-3.2
		c-0.3,0-0.6,0.2-0.6,0.6c0,0.3,0.2,0.5,0.6,0.5h3.2v3.6c0,0.3,0.2,0.5,0.6,0.5c0.3,0,0.6-0.2,0.6-0.5v-3.6h3.2
		c0.3,0,0.6-0.2,0.6-0.5C1009.8-998.5,1009.5-998.7,1009.2-998.7z"/>
</g>
</svg>
