<?xml version="1.0" encoding="utf-8"?>
<!-- Generator: Adobe Illustrator 18.1.1, SVG Export Plug-In . SVG Version: 6.00 Build 0)  -->
<svg version="1.1" id="Layer_1" xmlns="http://www.w3.org/2000/svg" xmlns:xlink="http://www.w3.org/1999/xlink" x="0px" y="0px"
	 viewBox="0 0 30 30" enable-background="new 0 0 30 30" xml:space="preserve">
<g id="Grupo_57" transform="translate(-1081.305 946.542)">
	<path id="Trazado_167" fill="#fff" d="M1106.7-945.5c-0.8,0-1.6,0-2.3,0h-0.3v0h-1.2v0H1087c-0.8-0.1-1.5,0.4-1.7,1.2
		c0,0.1,0,0.1,0,0.2v24.8h0v0.2c-0.1,0.9,0.6,1.6,1.4,1.6c0.1,0,0.2,0,0.2,0c4.4,0,8.7,0,13.1,0c1,0,2-0.4,2.7-1
		c1.5-1.4,3-2.7,4.4-4.2c0.7-0.7,1.1-1.6,1.1-2.6c0-6.2,0-12.4,0-18.6c0-0.9-0.6-1.6-1.5-1.6
		C1106.8-945.5,1106.7-945.5,1106.7-945.5z M1101.7-919.1c0-0.2,0-0.2,0-0.3c0-1.1,0-2.1,0-3.2c-0.1-0.5,0.3-1,0.9-1.1
		c0.1,0,0.1,0,0.2,0c1.2,0,2.3,0,3.5,0c0.1,0,0.2,0,0.3,0L1101.7-919.1z M1107.1-925.5c0,0.7,0,0.6-0.6,0.6c-1.2,0-2.4,0-3.6,0
		c-1.2-0.1-2.3,0.8-2.4,2.1c0,0.1,0,0.2,0,0.4c0,1.1,0,2.3,0,3.4v0.4h-13.4c-0.6,0-0.6-0.1-0.6-0.6v-24.5c0-0.5,0.1-0.6,0.6-0.6
		h19.4c0.5,0,0.6,0.1,0.6,0.6C1107.1-937.6,1107.1-931.5,1107.1-925.5L1107.1-925.5z"/>
	<g id="Grupo_56" transform="translate(1399.444 -588.825)">
		<path id="Trazado_168" fill="#fff" d="M-307.6-350.5c-0.3,0-0.5-0.2-0.6-0.5c0-0.3,0.1-0.5,0.4-0.6c0.3-0.1,0.6,0,0.7,0.3
			c0,0.1,0.1,0.1,0.2,0.2c0.2,0.1,0.4,0.1,0.5-0.1c0.1-0.1,0.2-0.3,0.1-0.5c-0.2-0.5-0.7-0.8-1.2-0.8h0c-0.5,0-1,0.3-1.3,0.8
			c-0.3,0.5-0.2,1,0.1,1.5c0.3,0.4,0.7,0.6,1.1,0.6c0.1,0,0.3,0.1,0.4,0.2c0.1,0.1,0.2,0.3,0.2,0.4c0,0.1-0.1,0.3-0.2,0.4
			c-0.1,0.1-0.3,0.2-0.4,0.2c-0.2,0-0.4-0.1-0.5-0.3c-0.1-0.2-0.3-0.2-0.4-0.2c-0.2,0-0.3,0.2-0.3,0.4c0,0.1,0,0.2,0.1,0.3
			c0.2,0.4,0.7,0.7,1.2,0.7c0.2,0,0.4,0,0.5-0.1c0.7-0.3,1-1,0.8-1.7C-306.4-350.1-307-350.5-307.6-350.5z"/>
		<path id="Trazado_169" fill="#fff" d="M-304-352.3c-0.1-0.1-0.3-0.2-0.4-0.1c-0.2,0-0.3,0.2-0.3,0.3c-0.2,0.6-0.4,1.2-0.6,1.7
			l-0.4,1.2c-0.1,0.3-0.2,0.6-0.3,0.9c0,0.1,0,0.3,0.1,0.4c0.1,0.1,0.2,0.2,0.3,0.2c0.2,0,0.4-0.1,0.5-0.3c0.2-0.6,0.4-1.3,0.6-1.9
			l0.6-1.9C-303.9-352.1-303.9-352.2-304-352.3z"/>
	</g>
	<path id="Rectángulo_449" fill="#fff" d="M1102.3-933.7h-11.4c-0.3,0-0.6-0.3-0.6-0.6l0,0c0-0.3,0.3-0.6,0.6-0.6h11.4
		c0.3,0,0.6,0.3,0.6,0.6l0,0C1102.9-933.9,1102.7-933.7,1102.3-933.7z"/>
	<path id="Rectángulo_450" fill="#fff" d="M1102.3-930.8h-11.4c-0.3,0-0.6-0.3-0.6-0.6l0,0c0-0.3,0.3-0.6,0.6-0.6h11.4
		c0.3,0,0.6,0.3,0.6,0.6l0,0C1102.9-931,1102.6-930.8,1102.3-930.8z"/>
	<path id="Rectángulo_451" fill="#fff" d="M1102.3-926.6h-11.4c-0.3,0-0.6-0.3-0.6-0.6l0,0c0-0.3,0.3-0.6,0.6-0.6h11.4
		c0.3,0,0.6,0.3,0.6,0.6l0,0C1102.9-926.9,1102.6-926.6,1102.3-926.6z"/>
	<path id="Rectángulo_453" fill="#fff" d="M1090.3-927.2v-7c0-0.3,0.3-0.6,0.6-0.6l0,0c0.3,0,0.6,0.3,0.6,0.6v7
		c0,0.3-0.3,0.6-0.6,0.6l0,0C1090.5-926.6,1090.3-926.9,1090.3-927.2z"/>
	<path id="Rectángulo_454" fill="#fff" d="M1101.7-927.2v-6.8c0-0.3,0.3-0.6,0.6-0.6l0,0c0.3,0,0.6,0.3,0.6,0.6v6.8
		c0,0.3-0.3,0.6-0.6,0.6l0,0C1102-926.6,1101.7-926.9,1101.7-927.2z"/>
	<path id="Rectángulo_455" fill="#fff" d="M1096.4-923.2h-5.4c-0.3,0-0.6-0.3-0.6-0.6l0,0c0-0.3,0.3-0.6,0.6-0.6h5.4
		c0.3,0,0.6,0.3,0.6,0.6l0,0C1096.9-923.5,1096.7-923.2,1096.4-923.2z"/>
	<path id="Rectángulo_456" fill="#fff" d="M1102.3-937.8h-5.4c-0.3,0-0.6-0.3-0.6-0.6l0,0c0-0.3,0.3-0.6,0.6-0.6h5.4
		c0.3,0,0.6,0.3,0.6,0.6l0,0C1102.9-938.1,1102.6-937.8,1102.3-937.8z"/>
</g>
</svg>
