<?xml version="1.0" encoding="utf-8"?>
<!-- Generator: Adobe Illustrator 18.1.1, SVG Export Plug-In . SVG Version: 6.00 Build 0)  -->
<svg version="1.1" id="Layer_1" xmlns="http://www.w3.org/2000/svg" xmlns:xlink="http://www.w3.org/1999/xlink" x="0px" y="0px"
	 viewBox="0 0 30 30" enable-background="new 0 0 30 30" xml:space="preserve">
<g id="Grupo_64" transform="translate(-1228.72 1108.566)">
	<path id="Rectángulo_461" fill="#fff" d="M1242.8-1101.3h7.7c0.3,0,0.6,0.3,0.6,0.6v0c0,0.3-0.3,0.6-0.6,0.6h-7.7
		c-0.3,0-0.6-0.3-0.6-0.6v0C1242.2-1101.1,1242.5-1101.3,1242.8-1101.3z"/>
	<path id="Trazado_174" fill="#fff" d="M1254.1-1107.3c-0.8,0-1.5,0-2.3,0h-0.3v0h-1.2v0h-15.7c-0.8-0.1-1.5,0.4-1.7,1.2
		c0,0.1,0,0.1,0,0.2v24.6h0c0,0.1,0,0.2,0,0.2c-0.1,0.8,0.6,1.6,1.4,1.6c0.1,0,0.2,0,0.2,0c4.3,0,8.7,0,13,0c1,0,2-0.4,2.7-1
		c1.5-1.3,2.9-2.7,4.4-4.1c0.7-0.7,1.1-1.6,1.1-2.6c0-6.2,0-12.3,0-18.5c0-0.8-0.6-1.6-1.5-1.6
		C1254.2-1107.3,1254.2-1107.3,1254.1-1107.3z M1249.2-1081.1c0-0.2,0-0.2,0-0.3c0-1.1,0-2.1,0-3.2c-0.1-0.5,0.3-1,0.9-1.1
		c0.1,0,0.1,0,0.2,0c1.2,0,2.3,0,3.4,0c0.1,0,0.2,0,0.3,0L1249.2-1081.1z M1254.5-1087.4c0,0.7,0,0.6-0.6,0.6c-1.2,0-2.4,0-3.6,0
		c-1.2-0.1-2.3,0.8-2.4,2.1c0,0.1,0,0.2,0,0.3c0,1.1,0,2.3,0,3.4v0.4h-13.3c-0.6,0-0.6-0.1-0.6-0.6c0-8.1,0-16.2,0-24.3
		c0-0.5,0.1-0.6,0.6-0.6h19.3c0.5,0,0.6,0.1,0.6,0.6C1254.5-1099.5,1254.5-1093.4,1254.5-1087.4L1254.5-1087.4z"/>
	<path id="Trazado_175" fill="#fff" d="M1241.3-1102.7L1241.3-1102.7c-0.2-0.2-0.5-0.1-0.7,0.1l-1.6,2.1l-0.6-0.5
		c-0.2-0.2-0.5-0.1-0.7,0.1c-0.1,0.1-0.1,0.2-0.1,0.4c0,0.1,0.1,0.3,0.2,0.3l1,0.8c0.1,0,0.1,0.1,0.2,0.1c0.1,0,0.1,0,0.2,0
		c0.1,0,0.3-0.1,0.4-0.2l2-2.5c0.1-0.1,0.1-0.2,0.1-0.4C1241.5-1102.5,1241.4-1102.6,1241.3-1102.7z"/>
	<path id="Rectángulo_462" fill="#fff" d="M1242.8-1096.3h7.7c0.3,0,0.6,0.3,0.6,0.6v0c0,0.3-0.3,0.6-0.6,0.6h-7.7
		c-0.3,0-0.6-0.3-0.6-0.6v0C1242.2-1096,1242.5-1096.3,1242.8-1096.3z"/>
	<path id="Trazado_176" fill="#fff" d="M1241.3-1097.7L1241.3-1097.7c-0.2-0.2-0.5-0.1-0.7,0.1l-1.6,2.1l-0.6-0.5
		c-0.2-0.2-0.5-0.1-0.7,0.1c-0.1,0.1-0.1,0.2-0.1,0.4c0,0.1,0.1,0.3,0.2,0.3l1,0.8c0.1,0,0.1,0.1,0.2,0.1c0.1,0,0.1,0,0.2,0
		c0.1,0,0.3-0.1,0.4-0.2l2-2.5c0.1-0.1,0.1-0.2,0.1-0.4C1241.5-1097.5,1241.4-1097.6,1241.3-1097.7z"/>
	<path id="Rectángulo_463" fill="#fff" d="M1242.8-1091.3h7.7c0.3,0,0.6,0.3,0.6,0.6v0c0,0.3-0.3,0.6-0.6,0.6h-7.7
		c-0.3,0-0.6-0.3-0.6-0.6v0C1242.2-1091,1242.5-1091.3,1242.8-1091.3z"/>
	<path id="Trazado_177" fill="#fff" d="M1241.3-1092.6L1241.3-1092.6c-0.2-0.2-0.5-0.1-0.7,0.1l-1.6,2.1l-0.6-0.5
		c-0.2-0.2-0.5-0.1-0.7,0.1c-0.1,0.1-0.1,0.2-0.1,0.4c0,0.1,0.1,0.3,0.2,0.3l1,0.8c0.1,0,0.1,0.1,0.2,0.1c0.1,0,0.1,0,0.2,0
		c0.1,0,0.3-0.1,0.4-0.2l2-2.5c0.1-0.1,0.1-0.2,0.1-0.4C1241.5-1092.4,1241.4-1092.6,1241.3-1092.6z"/>
</g>
</svg>
