<?xml version="1.0" encoding="utf-8"?>
<!-- Generator: Adobe Illustrator 18.1.1, SVG Export Plug-In . SVG Version: 6.00 Build 0)  -->
<svg version="1.1" id="Layer_1" xmlns="http://www.w3.org/2000/svg" xmlns:xlink="http://www.w3.org/1999/xlink" x="0px" y="0px"
	 viewBox="0 0 30 30" enable-background="new 0 0 30 30" xml:space="preserve">
<g id="Grupo_59" transform="translate(-984.831 796.203)">
	<g id="Grupo_58" transform="translate(1295.322 -596.044)">
		<path id="Trazado_170" fill="#fff" d="M-288.2-199.4c0.5,0.1,0.9,0.5,1,1c0,0.2,0.1,0.3,0,0.5c0,0.8,0,1.5,0,2.3h0.3
			c0.7,0,1.4,0,2.1,0c0.8,0,1.4,0.6,1.5,1.3c0,0,0,0.1,0,0.1c0,5.5,0,11,0,16.5c0,0.9-0.4,1.7-1,2.3c-1.3,1.3-2.6,2.5-4,3.7
			c-0.7,0.6-1.6,0.9-2.5,0.9c-4,0-7.9,0-11.9,0c-0.8,0.1-1.4-0.5-1.5-1.3c0-0.1,0-0.1,0-0.2c0-0.7,0-1.5,0-2.2c0,0,0-0.1,0-0.1h-0.3
			c-0.7,0-1.4,0-2.1,0c-0.8,0-1.4-0.5-1.5-1.3c0-0.1,0-0.1,0-0.2c0-7.3,0-14.7,0-22c0-0.6,0.4-1.2,1-1.4c0,0,0.1,0,0.1-0.1
			L-288.2-199.4z M-290.3-171.8v-0.4c0-1,0-2,0-3c-0.1-1.1,0.7-2.1,1.9-2.2c0.1,0,0.2,0,0.3,0c1.1,0,2.2,0,3.3,0
			c0.5,0,0.5,0.1,0.5-0.5c0-5.4,0-10.8,0-16.2c0-0.5-0.1-0.5-0.5-0.5h-17.6c-0.5,0-0.5,0.1-0.5,0.5v21.7c0,0.5,0.1,0.5,0.6,0.5
			L-290.3-171.8L-290.3-171.8z M-288.2-195.6c0-0.1,0-0.2,0-0.2c0-0.7,0-1.4,0-2c0-0.4-0.1-0.5-0.5-0.5h-17.8
			c-0.4,0-0.5,0.1-0.5,0.5c0,7.3,0,14.6,0,21.9c0,0.4,0.1,0.5,0.5,0.5c0.7,0,1.4,0,2.1,0c0.1,0,0.1,0,0.2,0v-0.4c0-6,0-12,0-18.1
			c0-0.2,0-0.4,0-0.5c0.2-0.7,0.8-1.1,1.5-1.1L-288.2-195.6L-288.2-195.6z M-284.8-176.2c-0.1,0-0.2,0-0.3,0c-1.1,0-2.1,0-3.2,0
			c-0.5,0-0.9,0.3-1,0.8c0,0.1,0,0.1,0,0.2c0,0.9,0,1.9,0,2.8c0,0.1,0,0.1,0,0.3L-284.8-176.2z"/>
	</g>
	<path id="Rect치ngulo_457" fill="#fff" d="M996.4-783.4h10.4c0.3,0,0.5,0.2,0.5,0.5l0,0c0,0.3-0.2,0.5-0.5,0.5h-10.4
		c-0.3,0-0.5-0.2-0.5-0.5l0,0C995.9-783.2,996.1-783.4,996.4-783.4z"/>
	<path id="Rect치ngulo_458" fill="#fff" d="M996.5-786.8h10.4c0.3,0,0.5,0.2,0.5,0.5l0,0c0,0.3-0.2,0.5-0.5,0.5h-10.4
		c-0.3,0-0.5-0.2-0.5-0.5l0,0C996-786.6,996.2-786.8,996.5-786.8z"/>
	<path id="Rect치ngulo_459" fill="#fff" d="M996.4-776.5h5.8c0.3,0,0.5,0.2,0.5,0.5l0,0c0,0.3-0.2,0.5-0.5,0.5h-5.8
		c-0.3,0-0.5-0.2-0.5-0.5l0,0C995.9-776.2,996.1-776.5,996.4-776.5z"/>
	<path id="Rect치ngulo_460" fill="#fff" d="M996.5-780h10.4c0.3,0,0.5,0.2,0.5,0.5l0,0c0,0.3-0.2,0.5-0.5,0.5h-10.4
		c-0.3,0-0.5-0.2-0.5-0.5l0,0C995.9-779.7,996.2-780,996.5-780z"/>
</g>
</svg>
