<?xml version="1.0" encoding="iso-8859-1"?>
<!-- Generator: Adobe Illustrator 16.0.0, SVG Export Plug-In . SVG Version: 6.00 Build 0)  -->
<!DOCTYPE svg PUBLIC "-//W3C//DTD SVG 1.1//EN" "http://www.w3.org/Graphics/SVG/1.1/DTD/svg11.dtd">
<svg version="1.1" id="Capa_1" xmlns="http://www.w3.org/2000/svg" xmlns:xlink="http://www.w3.org/1999/xlink" x="0px" y="0px"
	 width="383.751px" height="383.751px" viewBox="0 0 383.751 383.751" style="enable-background:new 0 0 383.751 383.751;"
	 xml:space="preserve" fill="#fff">
<g>
	<g>
		<path d="M155.787,295.964c0.582,4.49,2.889,8.491,6.494,11.268c3.013,2.32,6.62,3.545,10.345,3.545
			c0.732,0,1.469-0.046,2.207-0.142c0,0,124.32-16.127,124.414-16.14c2.396-0.312,4.085-2.504,3.773-4.897l-6.646-51.216v-0.002
			c-0.272-2.095-1.993-4.017-4.016-3.792c-1.917,0.211-9.283,1.113-9.283,1.113l14.053-24.866l20.499,20.383l-9.077,1.177
			c-2.394,0.312-4.085,2.504-3.773,4.897l6.643,51.211c0.287,2.205,2.165,3.811,4.331,3.811c1.298,0,40.34-5.195,40.34-5.195
			c3.165-0.409,5.985-2.034,7.942-4.574c1.956-2.541,2.807-5.683,2.396-8.845l-19.897-153.383c-0.312-2.396-2.52-4.063-4.897-3.773
			c-2.394,0.312-4.085,2.504-3.773,4.898l19.896,153.385c0.112,0.849-0.12,1.694-0.651,2.384c-0.53,0.688-1.287,1.128-2.137,1.238
			l-35.438,4.6l-5.519-42.544l11.887-1.542c2.133-0.278,3.785-1.565,4.42-3.445c0.637-1.878,0.105-3.904-1.42-5.424l-28.447-28.286
			c-1.292-1.284-3.033-1.886-4.782-1.647c-1.747,0.237-3.267,1.283-4.176,2.88l-19.48,34.47c-1.053,1.856-1.023,3.944,0.077,5.583
			c0.962,1.431,2.548,2.234,4.351,2.234c0.26,0,0.527-0.018,0.797-0.051l11.032-1.434l5.519,42.543L173.708,301.96
			c-2.167,0.283-4.338-0.306-6.092-1.658c-1.755-1.35-2.876-3.292-3.158-5.466l-18.68-143.983c-0.281-2.173,0.308-4.336,1.66-6.092
			c1.35-1.754,3.292-2.876,5.464-3.158l152.456-19.78c2.395-0.311,4.085-2.504,3.773-4.898c-0.312-2.396-2.52-4.076-4.897-3.773
			l-152.456,19.78c-9.295,1.205-15.877,9.748-14.672,19.045L155.787,295.964z"/>
		<path d="M371.744,312.4c-0.324-2.394-2.504-4.09-4.916-3.751l-209.215,28.11c-2.392,0.322-4.071,2.521-3.751,4.914
			c2.179,16.225-8.26,31.068-23.271,33.086c-15.008,2.008-28.864-8.556-30.883-23.569c-2.016-15.013,8.556-28.867,23.567-30.883
			c5.566-0.743,9.199-0.33,13.41,1.535c0.613,0.272,1.813,0.434,2.6,0.336c2.396-0.296,4.072-2.521,3.75-4.915L107.11,49.96
			C102.879,18.463,73.816-3.708,42.317,0.516c-10.574,1.42-20.511,5.72-28.741,12.429c-1.871,1.527-2.149,4.279-0.624,6.152
			c1.524,1.869,4.279,2.149,6.151,0.624c6.977-5.69,15.408-9.335,24.378-10.541c26.727-3.584,51.373,15.229,54.965,41.945
			l35.025,260.596c-3.439-0.642-7.05-0.656-11.359-0.075c-19.789,2.657-33.726,20.921-31.068,40.712
			c2.441,18.162,18.021,31.396,35.865,31.394c1.6,0,3.221-0.106,4.849-0.325c18.407-2.475,31.616-19.308,31.104-38.549
			l205.133-27.562C370.387,316.994,372.065,314.793,371.744,312.4z"/>
	</g>
</g>
<g>
</g>
<g>
</g>
<g>
</g>
<g>
</g>
<g>
</g>
<g>
</g>
<g>
</g>
<g>
</g>
<g>
</g>
<g>
</g>
<g>
</g>
<g>
</g>
<g>
</g>
<g>
</g>
<g>
</g>
</svg>
