<?xml version="1.0" encoding="utf-8"?>
<!-- Generator: Adobe Illustrator 18.1.1, SVG Export Plug-In . SVG Version: 6.00 Build 0)  -->
<svg version="1.1" id="Layer_1" xmlns="http://www.w3.org/2000/svg" xmlns:xlink="http://www.w3.org/1999/xlink" x="0px" y="0px"
	 viewBox="0 0 30 30" enable-background="new 0 0 30 30" xml:space="preserve">
<g id="Content_Right" transform="translate(131.266 356.384)">
	<path id="Trazado_64" fill="#fff" d="M-127.7-348.1v-3.3c0-0.7,0.5-1.3,1.3-1.4c0,0,0.1,0,0.1,0h6.6c0.7,0,1.4,0.5,1.4,1.3
		c0,0,0,0.1,0,0.1v6.7c0,0.7-0.5,1.4-1.3,1.4c0,0-0.1,0-0.1,0h-6.7c-0.7,0-1.4-0.5-1.4-1.3c0,0,0-0.1,0-0.1
		C-127.7-345.8-127.7-346.9-127.7-348.1z M-126.8-348.1v3.2c0,0.4,0.2,0.6,0.6,0.6h6.5c0.4,0,0.6-0.2,0.6-0.6v-6.5
		c0-0.4-0.2-0.6-0.6-0.6h-6.5c-0.4,0-0.6,0.2-0.6,0.6C-126.8-350.2-126.8-349.1-126.8-348.1L-126.8-348.1z"/>
	<path id="Trazado_65" fill="#fff" d="M-109.9-352.7h3.3c0.7,0,1.4,0.5,1.4,1.3c0,0.1,0,0.1,0,0.2v6.6c0,0.7-0.5,1.4-1.3,1.4
		c0,0-0.1,0-0.1,0h-6.7c-0.7,0-1.4-0.5-1.4-1.3c0,0,0-0.1,0-0.1v-6.7c0-0.7,0.6-1.4,1.3-1.4c0,0,0.1,0,0.1,0L-109.9-352.7z
		 M-109.9-344.2h3.2c0.5,0,0.6-0.2,0.6-0.6v-6.4c0-0.5-0.2-0.6-0.6-0.6h-6.4c-0.5,0-0.6,0.2-0.6,0.6v6.4c0,0.5,0.2,0.6,0.6,0.6
		L-109.9-344.2z"/>
	<path id="Trazado_66" fill="#fff" d="M-123-330.2h-3.4c-0.7,0-1.4-0.5-1.4-1.3c0,0,0-0.1,0-0.1v-6.7c0-0.7,0.5-1.3,1.3-1.4
		c0,0,0.1,0,0.1,0h6.7c0.7,0,1.4,0.5,1.4,1.3c0,0,0,0.1,0,0.1c0,2.2,0,4.5,0,6.7c0,0.7-0.6,1.3-1.3,1.4c0,0-0.1,0-0.1,0L-123-330.2z
		 M-126.8-335v3.2c0,0.5,0.2,0.6,0.6,0.6h6.4c0.5,0,0.6-0.2,0.6-0.6v-6.4c0-0.5-0.2-0.6-0.6-0.6h-6.4c-0.5,0-0.6,0.2-0.6,0.6
		C-126.8-337.1-126.8-336.1-126.8-335z"/>
	<path id="Trazado_67" fill="#fff" d="M-110-339.7h3.3c0.7,0,1.4,0.5,1.4,1.3c0,0,0,0.1,0,0.1v6.7c0,0.7-0.5,1.4-1.3,1.4
		c0,0-0.1,0-0.1,0h-6.7c-0.7,0-1.4-0.5-1.4-1.3c0,0,0-0.1,0-0.1v-6.7c0-0.7,0.6-1.3,1.3-1.4c0,0,0.1,0,0.1,0L-110-339.7z
		 M-106.1-335v-3.2c0-0.5-0.2-0.6-0.6-0.6h-6.4c-0.5,0-0.6,0.2-0.6,0.6v6.4c0,0.5,0.2,0.6,0.6,0.6h6.4c0.5,0,0.6-0.2,0.6-0.6V-335z"
		/>
	<path id="Trazado_68" fill="#fff" d="M-116.9-335.5v-5c-0.1-0.7,0.5-1.4,1.2-1.4c0.1,0,0.2,0,0.2,0h9.7c0.1,0,0.2,0,0.2,0
		c0.2,0,0.4,0.3,0.4,0.5c0,0.2-0.2,0.3-0.4,0.4c-0.1,0-0.2,0-0.3,0h-9.5c-0.5,0-0.7,0.1-0.7,0.7v10.1c0,0.2-0.1,0.5-0.4,0.5
		c0,0,0,0-0.1,0c-0.2,0-0.5-0.2-0.5-0.4c0,0,0,0,0-0.1L-116.9-335.5L-116.9-335.5z"/>
	<path id="Trazado_69" fill="#fff" d="M-130-350.8v-2.8c0-0.7,0.6-1.4,1.3-1.4c0,0,0.1,0,0.1,0h5.7c0.4,0,0.6,0.2,0.6,0.4
		c0,0.3-0.2,0.5-0.6,0.5h-5.5c-0.5,0-0.7,0.1-0.7,0.7v5.5c0,0.2-0.1,0.3-0.2,0.5c-0.1,0.1-0.3,0.1-0.4,0c-0.2-0.1-0.3-0.2-0.3-0.5
		V-350.8z"/>
	<path id="Trazado_70" fill="#fff" d="M-107.2-355h2.8c0.7,0,1.4,0.5,1.4,1.3c0,0,0,0.1,0,0.1v5.7c0,0.2-0.1,0.4-0.3,0.5
		c-0.2,0-0.3,0-0.5-0.1c-0.1-0.1-0.2-0.3-0.2-0.5v-5.5c0-0.5-0.1-0.7-0.7-0.7h-5.5c-0.3,0-0.5-0.1-0.5-0.4c0-0.2,0.1-0.5,0.4-0.5
		c0,0,0.1,0,0.1,0H-107.2z"/>
	<path id="Trazado_71" fill="#fff" d="M-130-332.2v-2.9c0-0.4,0.2-0.6,0.4-0.6c0.3,0,0.5,0.2,0.5,0.6v5.5c0,0.5,0.1,0.6,0.6,0.6
		h5.6c0.4,0,0.6,0.2,0.5,0.5c0,0.3-0.2,0.4-0.5,0.4h-5.8c-0.7,0-1.3-0.6-1.3-1.3V-332.2z"/>
	<path id="Trazado_72" fill="#fff" d="M-107.2-328h-2.9c-0.4,0-0.6-0.2-0.6-0.4s0.2-0.5,0.6-0.5h5.5c0.5,0,0.7-0.1,0.7-0.7v-5.5
		c0-0.2,0.1-0.4,0.3-0.5c0.2-0.1,0.5,0,0.6,0.2c0,0.1,0,0.1,0,0.2v5.8c0,0.7-0.5,1.4-1.3,1.4c-0.1,0-0.1,0-0.2,0L-107.2-328z"/>
	<path id="Trazado_73" fill="#fff" d="M-116.9-345.8v-2.8c0-0.4,0.2-0.6,0.5-0.6s0.4,0.2,0.4,0.5v5.7c0,0.3-0.2,0.5-0.4,0.5
		s-0.5-0.2-0.5-0.6V-345.8z"/>
	<path id="Trazado_74" fill="#fff" d="M-124.8-341h-2.4c-0.4,0-0.6-0.2-0.5-0.5c0-0.3,0.2-0.4,0.5-0.4h4.8c0.3,0,0.5,0.2,0.5,0.4
		c0,0.3-0.2,0.5-0.5,0.5H-124.8z"/>
	<path id="Trazado_75" fill="#fff" d="M-119.4-341.9h1.1c0.2,0,0.5,0.1,0.5,0.4s-0.1,0.5-0.4,0.5c0,0-0.1,0-0.1,0h-2.2
		c-0.2,0-0.5-0.1-0.5-0.4c0-0.2,0.1-0.5,0.4-0.5c0,0,0.1,0,0.1,0H-119.4z"/>
	<path id="Trazado_76" fill="#fff" d="M-116.9-351.4v-0.9c0-0.2,0.2-0.4,0.4-0.5c0,0,0,0,0.1,0c0.2,0,0.4,0.2,0.5,0.4
		c0,0,0,0,0,0v1.7c0,0.2-0.2,0.5-0.4,0.5c0,0,0,0,0,0c-0.2,0-0.5-0.2-0.5-0.4c0,0,0-0.1,0-0.1V-351.4z"/>
	<path id="Trazado_77" fill="#fff" d="M-125-348v-1.2c0-0.5,0.4-0.8,0.8-0.8h2.3c0.5,0,0.9,0.4,0.9,0.8v2.3
		c0,0.5-0.4,0.8-0.8,0.8h-2.3c-0.5,0-0.9-0.4-0.9-0.9C-125.1-347.3-125-347.6-125-348z M-124.1-349.1v2.2h2.2v-2.2H-124.1z"/>
	<path id="Trazado_78" fill="#fff" d="M-107.9-348v1.1c0,0.5-0.4,0.9-0.9,0.9c0,0,0,0-0.1,0h-2.2c-0.5,0-0.9-0.4-0.9-0.8
		c0,0,0-0.1,0-0.1v-2.2c0-0.5,0.4-0.9,0.8-0.9c0,0,0.1,0,0.1,0h2.2c0.5,0,0.9,0.4,0.9,0.9c0,0,0,0,0,0.1
		C-107.9-348.8-107.9-348.4-107.9-348z M-111.1-346.9h2.2v-2.2h-2.2V-346.9z"/>
	<path id="Trazado_79" fill="#fff" d="M-121-335v1.1c0,0.5-0.4,0.9-0.9,0.9c0,0,0,0,0,0h-2.3c-0.5,0-0.9-0.4-0.9-0.9l0,0
		c0-0.8,0-1.5,0-2.3c0-0.5,0.4-0.9,0.8-0.9h2.3c0.5,0,0.8,0.4,0.9,0.8C-121-335.7-121-335.4-121-335z M-121.9-336.1h-2.2v2.2h2.2
		V-336.1z"/>
	<path id="Trazado_80" fill="#fff" d="M-110-337h1.1c0.5,0,0.9,0.4,0.9,0.9c0,0,0,0,0,0v2.3c0,0.5-0.4,0.9-0.9,0.9c0,0,0,0-0.1,0
		h-2.2c-0.5,0-0.9-0.4-0.9-0.9c0,0,0,0,0-0.1v-2.2c0-0.5,0.4-0.9,0.9-0.9c0,0,0.1,0,0.1,0L-110-337z M-111.1-333.9h2.2v-2.2h-2.2
		V-333.9z"/>
</g>
</svg>
