<?xml version="1.0" standalone="no"?>
<!DOCTYPE svg PUBLIC "-//W3C//DTD SVG 20010904//EN"
 "http://www.w3.org/TR/2001/REC-SVG-20010904/DTD/svg10.dtd">
<svg version="1.0" xmlns="http://www.w3.org/2000/svg"
 width="512.000000pt" height="512.000000pt" viewBox="0 0 512.000000 512.000000"
 preserveAspectRatio="xMidYMid meet">

<g transform="translate(0.000000,512.000000) scale(0.100000,-0.100000)"
fill="#000000" stroke="none">
<path d="M3070 5100 c-26 -12 -85 -61 -142 -117 l-97 -97 -96 93 c-103 100
-140 121 -210 121 -70 0 -107 -21 -210 -121 l-96 -93 -92 92 c-98 97 -141 122
-209 122 -66 -1 -115 -30 -208 -124 -46 -47 -89 -86 -95 -86 -6 0 -49 39 -95
86 -93 95 -142 123 -209 124 -74 0 -117 -30 -283 -198 -117 -119 -159 -168
-172 -202 -15 -42 -16 -198 -14 -2155 3 -2050 4 -2111 22 -2145 32 -59 303
-327 360 -355 103 -51 161 -32 291 96 l101 99 89 -91 c101 -102 126 -118 194
-126 73 -8 127 21 235 127 l92 90 89 -91 c97 -98 147 -129 210 -129 63 0 113
31 210 129 l89 91 101 -99 c116 -114 147 -132 219 -132 79 0 111 19 220 130
l100 100 111 -108 c142 -139 196 -158 301 -106 57 28 348 316 380 375 18 34
19 96 22 2150 l2 2114 -25 51 c-36 75 -345 378 -400 394 -104 29 -152 9 -282
-121 l-103 -102 -97 96 c-54 52 -113 103 -131 112 -54 28 -120 30 -172 6z
m195 -499 c92 -89 107 -100 156 -111 92 -20 126 -5 245 111 56 54 110 99 120
99 10 0 49 -30 86 -67 l68 -67 0 -2005 0 -2005 -67 -68 c-37 -38 -74 -68 -82
-68 -8 0 -58 43 -113 95 -104 102 -143 125 -208 125 -66 0 -109 -26 -211 -125
-53 -52 -102 -95 -109 -95 -7 0 -59 45 -115 99 -106 103 -138 121 -215 121
-57 -1 -110 -33 -195 -119 -48 -49 -88 -81 -100 -81 -12 0 -52 32 -100 81 -85
86 -138 118 -195 119 -73 0 -108 -18 -204 -111 -51 -49 -99 -89 -106 -89 -7 0
-51 36 -97 81 -90 86 -146 118 -206 119 -62 0 -107 -26 -198 -115 -48 -47 -95
-85 -105 -85 -10 0 -44 26 -76 57 l-58 57 0 2005 0 2005 57 58 c32 32 66 58
77 58 11 0 58 -38 110 -89 67 -65 102 -92 131 -100 95 -26 140 -9 251 100 49
49 98 89 109 89 10 0 55 -36 100 -79 101 -97 133 -115 205 -115 74 0 118 25
210 118 45 46 83 76 95 76 12 0 50 -30 95 -76 92 -93 136 -118 210 -118 72 -1
121 28 225 133 44 45 86 81 94 81 8 0 60 -44 116 -99z"/>
<path d="M1617 4001 c-80 -16 -137 -85 -137 -164 0 -69 35 -128 93 -156 42
-20 56 -21 523 -21 293 0 493 4 516 10 21 6 51 27 71 50 57 63 62 150 12 216
-54 71 -37 69 -565 71 -261 1 -492 -2 -513 -6z"/>
<path d="M1611 3140 c-146 -35 -179 -225 -54 -310 l37 -25 935 0 c1047 0 969
-5 1028 72 24 31 28 46 28 98 0 52 -4 67 -28 98 -59 77 15 72 -1002 74 -500 0
-925 -2 -944 -7z"/>
<path d="M1595 2279 c-68 -21 -115 -89 -115 -165 0 -89 66 -157 163 -169 29
-3 333 -5 677 -3 l625 3 41 24 c109 62 115 220 11 289 l-41 27 -665 2 c-391 1
-678 -2 -696 -8z"/>
<path d="M1572 1409 c-57 -28 -92 -88 -92 -156 0 -58 26 -105 79 -140 l34 -23
936 0 c892 0 938 1 971 19 64 34 100 111 86 187 -9 47 -68 111 -114 124 -24 6
-363 10 -947 10 -907 0 -910 0 -953 -21z"/>
</g>
</svg>
